<svg preserveAspectRatio="xMidYMid meet" data-bbox="37.111 29.778 126 140" viewBox="37.111 29.778 126 140" height="200" width="200" xmlns="http://www.w3.org/2000/svg" data-type="color" role="presentation" aria-hidden="true"><defs><style>#comp-kpmp6uoj svg [data-color="1"]</style></defs>
    <g>
        <path d="M159.611 29.778h-119a3.497 3.497 0 0 0-3.5 3.5c0 1.935 1.565 3.5 3.5 3.5h17.5v3.5c0 5.79 4.71 10.5 10.5 10.5h10.5v17.5c0 7.158 4.331 13.308 10.5 16.017v11.983c0 4.557 2.935 8.406 7 9.855v4.145c0 1.935 1.565 3.5 3.5 3.5s3.5-1.565 3.5-3.5v-4.145c4.065-1.45 7-5.298 7-9.855V84.294c6.169-2.708 10.5-8.859 10.5-16.017v-17.5h10.5c5.79 0 10.5-4.71 10.5-10.5v-3.5h17.5c1.935 0 3.5-1.565 3.5-3.5a3.497 3.497 0 0 0-3.5-3.499zm-56 66.5c0 1.931-1.569 3.5-3.5 3.5a3.503 3.503 0 0 1-3.5-3.5v-10.5h7v10.5zm10.5-28c0 5.79-4.71 10.5-10.5 10.5h-7c-5.79 0-10.5-4.71-10.5-10.5v-17.5h28v17.5zm21-28c0 1.931-1.569 3.5-3.5 3.5h-63a3.503 3.503 0 0 1-3.5-3.5v-3.5h70v3.5z"  data-color="1"></path>
        <path d="M100.111 120.778a3.497 3.497 0 0 0-3.5 3.5v42c0 1.935 1.565 3.5 3.5 3.5s3.5-1.565 3.5-3.5v-42c0-1.935-1.565-3.5-3.5-3.5z"  data-color="1"></path>
        <path d="M82.611 162.778h-21c-1.935 0-3.5 1.565-3.5 3.5s1.565 3.5 3.5 3.5h21c1.935 0 3.5-1.565 3.5-3.5s-1.565-3.5-3.5-3.5z" data-color="1"></path>
        <path d="M81.046 155.409a3.506 3.506 0 0 0 4.696-1.566 3.5 3.5 0 0 0-1.566-4.696l-14-7a3.5 3.5 0 1 0-3.13 6.261l14 7.001z" data-color="1"></path>
        <path d="M138.611 162.778h-21c-1.935 0-3.5 1.565-3.5 3.5s1.565 3.5 3.5 3.5h21c1.935 0 3.5-1.565 3.5-3.5s-1.565-3.5-3.5-3.5z" data-color="1"></path>
        <path d="M117.615 155.778a3.46 3.46 0 0 0 1.562-.369l14-7a3.502 3.502 0 0 0 1.566-4.696 3.502 3.502 0 0 0-4.696-1.565l-14 7a3.502 3.502 0 0 0-1.566 4.696 3.505 3.505 0 0 0 3.134 1.934z" data-color="1"></path>
    </g>
</svg>