<svg preserveAspectRatio="xMidYMid meet" data-bbox="23.111 22.778 154.001 154" viewBox="23.111 22.778 154.001 154" height="200" width="200" xmlns="http://www.w3.org/2000/svg" data-type="color" role="presentation" aria-hidden="true" aria-label=""><defs><style>#comp-kpmpc2kf svg [data-color="1"] {fill: #FFFFFF;}</style></defs>
    <g>
        <path d="M173.611 85.778h-8.548a65.511 65.511 0 0 0-9.116-22.036l6.036-6.036a3.499 3.499 0 0 0 0-4.949l-14.851-14.851a3.499 3.499 0 0 0-4.949 0l-6.036 6.036a65.511 65.511 0 0 0-22.036-9.116v-8.548c0-1.935-1.565-3.5-3.5-3.5h-21a3.497 3.497 0 0 0-3.5 3.5v8.548a65.511 65.511 0 0 0-22.036 9.116l-6.036-6.036a3.499 3.499 0 0 0-4.949 0L38.239 52.757a3.499 3.499 0 0 0 0 4.949l6.036 6.036a65.511 65.511 0 0 0-9.116 22.036h-8.548a3.497 3.497 0 0 0-3.5 3.5v21c0 1.935 1.565 3.5 3.5 3.5h8.548a65.516 65.516 0 0 0 9.116 22.032l-6.036 6.043a3.499 3.499 0 0 0 0 4.949L53.09 161.65c1.316 1.312 3.64 1.312 4.949 0l6.036-6.036a65.568 65.568 0 0 0 22.036 9.119v8.545c0 1.935 1.565 3.5 3.5 3.5h21c1.935 0 3.5-1.565 3.5-3.5v-8.545a65.577 65.577 0 0 0 22.036-9.119l6.036 6.036a3.498 3.498 0 0 0 4.95 0l14.851-14.848a3.499 3.499 0 0 0 0-4.949l-6.036-6.043a65.545 65.545 0 0 0 9.116-22.032h8.548c1.935 0 3.5-1.565 3.5-3.5v-21a3.499 3.499 0 0 0-3.501-3.5zm-3.5 21h-7.943a3.504 3.504 0 0 0-3.452 2.919c-1.5 8.921-4.915 17.172-10.141 24.514a3.498 3.498 0 0 0 .376 4.505l5.609 5.612-9.902 9.899-5.609-5.612a3.49 3.49 0 0 0-4.505-.376c-7.345 5.236-15.593 8.647-24.514 10.145a3.503 3.503 0 0 0-2.919 3.452v7.943h-14v-7.943a3.503 3.503 0 0 0-2.919-3.452c-8.921-1.497-17.168-4.908-24.514-10.145a3.49 3.49 0 0 0-4.505.376l-5.609 5.612-9.902-9.899 5.609-5.612a3.498 3.498 0 0 0 .376-4.505c-5.226-7.342-8.641-15.593-10.141-24.514a3.504 3.504 0 0 0-3.452-2.919h-7.943v-14h7.943a3.5 3.5 0 0 0 3.452-2.919c1.5-8.924 4.915-17.172 10.141-24.514a3.498 3.498 0 0 0-.376-4.505l-5.609-5.609 9.902-9.902 5.609 5.609a3.502 3.502 0 0 0 4.505.376c7.342-5.226 15.589-8.641 24.514-10.141a3.5 3.5 0 0 0 2.919-3.452v-7.943h14v7.943a3.5 3.5 0 0 0 2.919 3.452c8.924 1.501 17.172 4.915 24.514 10.141a3.502 3.502 0 0 0 4.505-.376l5.609-5.609 9.902 9.902-5.609 5.609a3.498 3.498 0 0 0-.376 4.505c5.226 7.342 8.641 15.589 10.141 24.514a3.5 3.5 0 0 0 3.452 2.919h7.943v14z" data-color="1"></path>
        <path d="M122.676 82.647l-21-10.5a3.505 3.505 0 0 0-3.131 0l-21 10.5a3.503 3.503 0 0 0-1.935 3.131v28a3.5 3.5 0 0 0 1.935 3.131l21 10.5a3.5 3.5 0 0 0 3.13 0l21-10.5a3.503 3.503 0 0 0 1.935-3.131v-28a3.498 3.498 0 0 0-1.934-3.131zm-22.565-3.456l13.173 6.586-13.173 6.586-13.173-6.586 13.173-6.586zm-17.5 12.25l14 7v20.176l-14-7V91.441zm21 27.177V98.441l14-7v20.176l-14 7.001z" data-color="1"></path>
    </g>
</svg>