<svg preserveAspectRatio="xMidYMid meet" data-bbox="37.111 29.778 126 140" viewBox="37.111 29.778 126 140" height="200" width="200" xmlns="http://www.w3.org/2000/svg" data-type="color" role="presentation" aria-hidden="true" aria-label=""><defs><style>#comp-kpmpcc8v svg [data-color="1"] {fill: #FFFFFF;}</style></defs>
    <g>
        <path d="M66.875 130.82l24.5 14c.537.308 1.138.458 1.736.458s1.2-.15 1.736-.458l24.5-14a3.511 3.511 0 0 0 1.764-3.042v-28a3.502 3.502 0 0 0-1.764-3.039l-24.5-14a3.5 3.5 0 0 0-3.473 0l-24.5 14a3.502 3.502 0 0 0-1.764 3.039v28a3.514 3.514 0 0 0 1.765 3.042zm5.236-25.012l17.5 10v19.937l-17.5-9.998v-19.939zm24.5 29.937v-19.933l17.5-10.003v19.938l-17.5 9.998zm-3.5-45.937l17.447 9.97-17.447 9.97-17.447-9.97 17.447-9.97z"  data-color="1"></path>
        <path d="M149.111 166.278V64.426c7.978-1.627 14-8.695 14-17.148 0-9.649-7.851-17.5-17.5-17.5h-91c-9.652 0-17.5 7.851-17.5 17.5v119c0 1.935 1.565 3.5 3.5 3.5h105c1.935 0 3.5-1.566 3.5-3.5zm-3.5-129.5c5.79 0 10.5 4.71 10.5 10.5s-4.71 10.5-10.5 10.5H75.604c4.402-5.852 4.402-15.149 0-21h70.007zm-101.5 126v-115.5c0-5.79 4.71-10.5 10.5-10.5h7c5.79 0 10.5 4.71 10.5 10.5s-4.71 10.5-10.5 10.5a3.497 3.497 0 0 0-3.5 3.5c0 1.935 1.565 3.5 3.5 3.5h80.5v98h-98z"  data-color="1"></path>
    </g>
</svg>