<svg preserveAspectRatio="xMidYMid meet" data-bbox="37.11 29.809 126 140.002" viewBox="37.11 29.809 126 140.002" height="200" width="200" xmlns="http://www.w3.org/2000/svg" data-type="color" role="presentation" aria-hidden="true" aria-label=""><defs><style>#comp-kpmpbfla svg [data-color="1"] {fill: #FFFFFF;}</style></defs>
    <g>
        <path d="M161.101 58.142l-59.5-28a3.502 3.502 0 0 0-2.981 0l-59.5 28a3.507 3.507 0 0 0-2.01 3.169v77c0 1.353.786 2.591 2.01 3.165l59.5 28c.018.009.039.005.057.013.44.199.919.322 1.433.322s.994-.124 1.433-.322c.018-.008.039-.004.057-.013l59.5-28a3.502 3.502 0 0 0 2.01-3.165v-77a3.504 3.504 0 0 0-2.009-3.169zm-64.49 102.652l-52.5-24.706V66.827l52.5 24.705v69.262zm3.5-75.353L48.833 61.31l47.778-22.483v8.484c0 1.935 1.565 3.5 3.5 3.5s3.5-1.565 3.5-3.5v-8.484l47.778 22.483-51.278 24.131zm56 50.648l-52.5 24.706V91.533l52.5-24.706v69.262z"  data-color="1"></path>
        <path d="M100.111 57.81a3.497 3.497 0 0 0-3.5 3.5v10.5c0 1.935 1.565 3.5 3.5 3.5s3.5-1.565 3.5-3.5v-10.5c0-1.934-1.565-3.5-3.5-3.5z"  data-color="1"></path>
        <path d="M56.539 133.703c.499 0 1.012-.109 1.49-.335l8.572-4.033a3.491 3.491 0 0 0 1.675-4.655 3.508 3.508 0 0 0-4.655-1.675l-8.572 4.033a3.491 3.491 0 0 0-1.675 4.655 3.497 3.497 0 0 0 3.165 2.01z"  data-color="1"></path>
        <path d="M79.111 123.087c.499 0 1.012-.109 1.49-.335l7-3.295a3.491 3.491 0 0 0 1.675-4.655 3.506 3.506 0 0 0-4.655-1.675l-7 3.295a3.491 3.491 0 0 0-1.675 4.655 3.498 3.498 0 0 0 3.165 2.01z"  data-color="1"></path>
        <path d="M133.621 129.335l8.572 4.033a3.495 3.495 0 0 0 4.655-1.675 3.491 3.491 0 0 0-1.675-4.655l-8.572-4.033a3.508 3.508 0 0 0-4.655 1.675 3.492 3.492 0 0 0 1.675 4.655z"  data-color="1"></path>
        <path d="M112.621 119.457l7 3.295a3.498 3.498 0 0 0 4.655-1.675 3.491 3.491 0 0 0-1.675-4.655l-7-3.295c-1.73-.82-3.835-.068-4.655 1.675a3.491 3.491 0 0 0 1.675 4.655z"  data-color="1"></path>
    </g>
</svg>